<?xml version="1.0" encoding="iso-8859-1"?>
<!-- Generator: Adobe Illustrator 19.0.0, SVG Export Plug-In . SVG Version: 6.00 Build 0)  -->
<svg version="1.1" id="Capa_1" xmlns="http://www.w3.org/2000/svg" xmlns:xlink="http://www.w3.org/1999/xlink" x="0px" y="0px"
	 viewBox="0 0 416.304 416.304" style="enable-background:new 0 0 416.304 416.304;" xml:space="preserve">
<g>
	<g>
		<path d="M348.738,261.696c-0.64-0.64-1.328-1.2-2.064-1.632c-10.368-6.528-22.192-9.824-34.016-9.824
			c-16.368,0-32.72,6.24-45.2,18.72l-11.312,11.328v-152.24c0-17.6-14.4-32-32-32c-17.6,0-32,14.4-32,32v70.4
			c-5.84-7.168-14.64-11.84-24.608-11.84c-6.928,0-13.312,2.272-18.544,6.032l-68.912,39.888
			c-9.52,5.536-15.936,15.776-15.936,27.568v52.624c0,57.216,46.368,103.584,103.584,103.584c27.712,0,52.816-10.944,71.392-28.672
			l0.016,0.144l1.776-1.776c0.032-0.032,0.064-0.064,0.08-0.08l107.744-107.76C353.298,273.6,353.298,266.24,348.738,261.696z
			 M228.082,376.032c-16.4,15.632-37.84,24.24-60.352,24.24c-48.304,0.016-87.584-39.264-87.584-87.568V260.08
			c0-5.632,2.992-10.736,8.016-13.664l70.144-40.784c1.92-1.376,5.088-3.04,9.216-3.04c6.4,0,10.4,3.728,12.224,5.952l14.208,17.408
			c2.144,2.624,5.696,3.616,8.88,2.48c3.184-1.136,5.312-4.16,5.312-7.536v-92.848c0-8.816,7.184-16,16-16c8.816,0,16,7.184,16,16
			V288c0,6.8,4.272,12.512,10.272,14.8c2.576,0.976,5.488,0.352,7.44-1.6l20.912-20.912c9.056-9.056,21.088-14.032,33.888-14.032
			c7.216,0,14.272,1.6,20.704,4.672L228.082,376.032z"/>
	</g>
</g>
<g>
	<g>
		<path d="M224.05,0c-17.616,0-31.904,14.288-31.904,31.904c0,17.616,14.288,31.936,31.904,31.936
			c17.632,0,31.904-14.32,31.904-31.936C255.954,14.288,241.666,0,224.05,0z M224.05,47.856c-8.768,0-15.904-7.152-15.904-15.952
			c0-8.768,7.136-15.904,15.904-15.904s15.904,7.136,15.904,15.92S232.818,47.856,224.05,47.856z"/>
	</g>
</g>
<g>
	<g>
		<path d="M128.146,0C110.53,0,96.21,14.304,96.21,31.92c0,17.616,14.336,31.92,31.936,31.92c17.648,0,31.904-14.32,31.904-31.936
			C160.05,14.288,145.778,0,128.146,0z M128.146,47.856c-8.784,0-15.936-7.152-15.936-15.936S119.346,16,128.146,16
			c8.768,0,15.904,7.136,15.904,15.92S136.914,47.856,128.146,47.856z"/>
	</g>
</g>
<g>
	<g>
		<path d="M320.178,0c-17.632,0-31.952,14.304-31.952,31.92c0,17.616,14.304,31.936,31.952,31.936
			c17.6,0,31.872-14.32,31.872-31.936C352.05,14.288,337.762,0,320.178,0z M320.178,47.856c-8.8,0-15.952-7.152-15.952-15.936
			S311.378,16,320.178,16c8.752,0,15.872,7.136,15.872,15.92S328.93,47.856,320.178,47.856z"/>
	</g>
</g>
<g>
	<g>
		<path d="M128.146,96.048c-17.616,0-31.936,14.304-31.936,31.92c0,17.632,14.336,31.936,31.936,31.936
			c17.648,0,31.904-14.288,31.904-31.936C160.05,110.352,145.778,96.048,128.146,96.048z M128.146,143.904
			c-8.784,0-15.936-7.152-15.936-15.936c0-8.768,7.136-15.92,15.936-15.92c8.768,0,15.904,7.136,15.904,15.92
			S136.914,143.904,128.146,143.904z"/>
	</g>
</g>
<g>
	<g>
		<path d="M320.178,96.048c-17.632,0-31.952,14.304-31.952,31.92c0,17.648,14.32,31.936,31.952,31.936
			c17.6,0,31.872-14.288,31.872-31.936C352.05,110.352,337.778,96.048,320.178,96.048z M320.178,143.904
			c-8.8,0-15.952-7.152-15.952-15.936c0-8.768,7.152-15.92,15.952-15.92c8.752,0,15.872,7.136,15.872,15.92
			S328.93,143.904,320.178,143.904z"/>
	</g>
</g>
<g>
</g>
<g>
</g>
<g>
</g>
<g>
</g>
<g>
</g>
<g>
</g>
<g>
</g>
<g>
</g>
<g>
</g>
<g>
</g>
<g>
</g>
<g>
</g>
<g>
</g>
<g>
</g>
<g>
</g>
</svg>
